<?xml version="1.0" standalone="no"?>
<!DOCTYPE svg PUBLIC "-//W3C//DTD SVG 20010904//EN"
 "http://www.w3.org/TR/2001/REC-SVG-20010904/DTD/svg10.dtd">
<svg version="1.0" xmlns="http://www.w3.org/2000/svg"
 width="500.000000pt" height="500.000000pt" viewBox="0 0 500.000000 500.000000"
 preserveAspectRatio="xMidYMid meet">
<metadata>
Created by potrace 1.16, written by Peter Selinger 2001-2019
</metadata>
<g transform="translate(0.000000,500.000000) scale(0.100000,-0.100000)"
fill="#000000" stroke="none">
<path d="M0 2500 l0 -2500 2500 0 2500 0 0 2500 0 2500 -2500 0 -2500 0 0
-2500z m3241 1160 c18 -10 19 -28 19 -595 l0 -585 -60 0 -60 0 0 66 c0 59 -3
68 -29 95 l-29 29 -232 0 -232 0 -29 -29 -29 -29 0 -185 c0 -170 2 -186 20
-210 l20 -26 -46 -70 -47 -70 -23 24 c-31 33 -61 37 -291 33 l-203 -3 -27 -28
-28 -27 -3 -172 c-2 -94 -1 -182 3 -195 3 -14 18 -36 32 -49 26 -24 28 -24
238 -24 l213 0 4 -35 4 -35 -217 0 c-215 0 -216 0 -242 -24 -14 -13 -29 -35
-32 -49 -4 -13 -5 -101 -3 -196 l3 -173 33 -29 32 -29 218 0 c197 0 220 2 249
20 37 22 53 67 53 150 l0 55 20 -30 c11 -16 20 -38 20 -49 0 -35 23 -97 46
-121 17 -19 33 -25 63 -25 31 0 52 -8 88 -36 25 -19 68 -46 95 -60 26 -13 48
-27 48 -29 0 -3 -380 -5 -844 -5 -754 0 -846 2 -860 16 -14 14 -16 151 -16
1364 0 1213 2 1350 16 1364 14 14 120 16 1020 16 674 0 1012 -3 1025 -10z
m-163 -1122 l3 -66 -56 -12 c-85 -18 -240 -100 -313 -165 -38 -35 -68 -55 -77
-51 -12 4 -15 34 -15 170 0 90 3 172 6 180 6 14 32 16 228 14 l221 -3 3 -67z
m357 -142 c235 -65 441 -266 515 -501 30 -96 38 -290 16 -395 -54 -259 -282
-495 -546 -566 -81 -22 -281 -25 -359 -5 -297 75 -524 319 -571 614 -53 332
112 653 415 803 50 25 122 51 160 59 90 18 288 13 370 -9z m-1004 -356 c24
-13 26 -92 4 -195 -8 -39 -15 -94 -15 -122 l0 -53 -205 0 c-192 0 -205 1 -215
19 -6 11 -10 87 -10 175 0 127 3 157 16 170 13 13 46 16 210 16 116 0 203 -4
215 -10z m9 -579 c15 -29 13 -334 -2 -349 -9 -9 -70 -12 -214 -12 -171 0 -205
2 -218 16 -13 13 -16 43 -16 170 0 88 4 164 10 175 10 18 23 19 220 19 197 0
210 -1 220 -19z"/>
<path d="M1352 3474 c-49 -34 -52 -54 -52 -339 0 -294 5 -321 59 -350 27 -14
121 -15 877 -13 l846 3 29 33 29 32 0 291 0 291 -34 34 -34 34 -849 0 c-753 0
-851 -2 -871 -16z m1712 -60 c14 -13 16 -53 16 -283 0 -194 -3 -270 -12 -279
-9 -9 -212 -12 -850 -12 l-838 0 -10 26 c-6 14 -10 136 -10 272 0 208 2 251
16 270 l15 22 829 0 c740 0 830 -2 844 -16z"/>
<path d="M1910 3233 c-34 -31 -47 -80 -36 -136 16 -86 113 -117 178 -58 31 28
33 33 33 96 0 63 -2 68 -33 96 -44 39 -99 40 -142 2z m131 -12 c18 -14 23 -31
27 -78 4 -52 1 -63 -21 -88 -20 -24 -33 -30 -67 -30 -34 0 -47 6 -67 30 -22
25 -25 36 -21 88 5 71 29 97 88 97 22 0 47 -8 61 -19z"/>
<path d="M2162 3136 c-28 -69 -46 -126 -41 -126 5 0 18 20 29 45 19 45 20 45
68 45 49 0 49 0 66 -45 10 -25 22 -45 26 -45 8 0 -6 43 -60 180 -12 30 -25 59
-29 63 -5 5 -31 -48 -59 -117z"/>
<path d="M2564 2945 c-4 -8 -4 -22 0 -30 4 -13 39 -15 225 -15 211 0 220 1
226 20 3 11 3 24 0 30 -4 6 -89 10 -226 10 -186 0 -221 -2 -225 -15z"/>
<path d="M1343 2652 c-36 -28 -43 -65 -43 -228 0 -254 0 -254 297 -254 290 0
291 1 292 246 1 168 -3 196 -37 229 l-25 25 -231 0 c-203 0 -234 -3 -253 -18z
m475 -222 c2 -156 1 -176 -15 -187 -18 -14 -365 -19 -410 -7 -23 6 -23 8 -23
183 0 98 3 181 7 185 4 3 104 5 222 4 l216 -3 3 -175z"/>
<path d="M1974 2655 c-40 -27 -46 -62 -42 -248 l3 -177 28 -27 27 -28 215 -3
c316 -5 310 -10 310 259 l0 178 -29 30 -30 31 -231 0 c-186 0 -235 -3 -251
-15z m470 -61 c3 -9 6 -89 6 -179 0 -152 -1 -165 -19 -175 -12 -6 -99 -10
-215 -10 -164 0 -197 3 -210 16 -13 13 -16 44 -16 178 0 113 4 166 12 174 9 9
72 12 224 12 184 0 213 -2 218 -16z"/>
<path d="M1365 2101 c-11 -5 -29 -19 -40 -31 -18 -20 -20 -39 -23 -182 -4
-188 0 -217 35 -252 l26 -26 231 0 232 0 30 31 29 30 3 158 c4 188 -5 233 -51
261 -29 18 -51 20 -242 19 -115 0 -219 -4 -230 -8z m443 -59 c9 -7 12 -51 10
-188 l-3 -179 -220 0 -220 0 -3 174 c-2 119 1 178 9 187 9 11 54 14 213 14
110 0 207 -4 214 -8z"/>
<path d="M1353 1528 c-46 -22 -55 -65 -51 -254 l3 -174 28 -27 27 -28 223 -3
c247 -3 260 0 290 58 16 30 17 58 15 208 l-3 174 -33 29 -32 29 -223 -1 c-135
0 -231 -5 -244 -11z m465 -232 c2 -137 -1 -181 -10 -188 -15 -9 -398 -11 -422
-2 -14 5 -16 31 -16 183 0 98 3 181 7 185 4 3 104 5 222 4 l216 -3 3 -179z"/>
<path d="M3090 2284 c-112 -24 -204 -77 -301 -173 -66 -66 -95 -104 -123 -161
-152 -313 -28 -690 279 -845 100 -51 163 -65 291 -65 181 0 304 51 435 180
129 127 178 238 186 415 6 128 -10 211 -58 308 -131 265 -420 404 -709 341z
m240 -55 c106 -16 221 -78 304 -163 269 -272 204 -710 -134 -904 -116 -67
-310 -83 -447 -37 -96 33 -168 80 -242 161 -185 203 -200 507 -34 722 136 177
335 256 553 221z"/>
<path d="M3190 2085 c0 -8 -21 -24 -47 -35 -27 -12 -61 -33 -77 -48 -63 -60
-84 -167 -47 -248 21 -47 83 -103 132 -119 l34 -12 3 -126 c1 -70 -1 -127 -6
-127 -15 0 -60 54 -67 80 -5 23 -10 25 -51 21 -45 -3 -45 -3 -38 -35 13 -65
63 -124 127 -151 25 -10 37 -22 37 -35 0 -17 7 -20 41 -20 32 0 42 4 46 20 3
11 20 24 40 31 84 27 143 113 143 209 0 96 -56 177 -142 206 l-33 11 -3 126
c-2 78 1 127 7 127 16 0 59 -62 63 -90 3 -22 9 -25 46 -28 41 -3 42 -2 42 26
0 67 -60 150 -127 179 -22 9 -33 20 -33 33 0 17 -7 20 -45 20 -33 0 -45 -4
-45 -15z m0 -240 c0 -79 -4 -125 -10 -125 -20 0 -61 33 -76 61 -17 33 -18 92
-3 122 13 27 59 67 77 67 9 0 12 -32 12 -125z m154 -276 c48 -56 29 -161 -34
-194 l-30 -16 0 131 c0 125 1 130 19 121 10 -6 31 -24 45 -42z"/>
</g>
</svg>
